<?xml version="1.0" standalone="no"?><!DOCTYPE svg PUBLIC "-//W3C//DTD SVG 1.1//EN" "http://www.w3.org/Graphics/SVG/1.1/DTD/svg11.dtd"><svg t="1571574319294" class="icon" viewBox="0 0 1024 1024" version="1.1" xmlns="http://www.w3.org/2000/svg" p-id="13041" data-darkreader-inline-fill="" xmlns:xlink="http://www.w3.org/1999/xlink" width="16" height="16"><defs><style type="text/css">[data-darkreader-inline-fill] { fill: var(--darkreader-inline-fill)  !important; }
</style></defs><path d="M521.2 353.1c-19.5 0-39.4 4-58.3 12.4-73 32.3-106 117.6-73.7 190.6 23.9 54 76.8 86.1 132.2 86.1 19.5 0 39.4-4 58.3-12.4 73-32.3 106-117.6 73.7-190.6-23.8-54-76.7-86.1-132.2-86.1z m67.7 170.7c-6.9 18-20.7 32.4-38.3 40.1-9.3 4.1-19.2 6.2-29.2 6.2-28.7 0-54.8-17-66.4-43.2-7.8-17.7-8.3-37.4-1.3-55.5s20.6-32.3 38.3-40.1c9.3-4.1 19.2-6.2 29.2-6.2 28.7 0 54.8 17 66.4 43.2 7.8 17.7 8.3 37.4 1.3 55.5z" fill="#1890FF" p-id="13042" data-darkreader-inline-fill="" style="--darkreader-inline-fill:#0062be;"></path><path d="M521.1 177.6c-43.2 0-87.1 8.8-129.2 27.4-161.6 71.4-234.7 260.4-163.3 422 52.9 119.6 170 190.7 292.8 190.7 43.2 0 87.1-8.8 129.2-27.4 161.7-71.4 234.8-260.4 163.4-422-52.9-119.6-170-190.7-292.9-190.7z m231.5 409.5c-11.5 29.9-28.7 57.2-50.6 80.5-22.7 24.2-50 43.5-80.4 56.8-31.5 14-65.6 21.3-100.1 21.3-47.5 0-93.8-13.6-133.9-39.2-41.1-26.2-73.5-64-93.1-108.6-13.6-30.6-20.7-63-21.2-96.1-0.5-32.1 5.1-63.5 16.8-93.6 11.6-30.1 28.7-57.2 50.6-80.5 22.7-24.2 50-43.5 80.4-56.8 31.9-14.1 65.6-21.3 100.1-21.3 47.5 0 93.8 13.6 133.9 39.2 41.1 26.2 73.5 64 93.1 108.6 13.6 30.6 20.7 63 21.2 96.1 0.5 32.1-5.2 63.6-16.8 93.6zM333.1 161c5.7 13.1 18.6 21.5 32.9 21.5 4.9 0 9.8-1 14.5-3.1 18.2-8 26.4-29.3 18.4-47.5L373 73.4C365 55.2 343.7 47 325.5 55s-26.4 29.3-18.4 47.5l26 58.5z m376.4 673.3c-8-18.2-29.3-26.4-47.5-18.4s-26.4 29.3-18.4 47.5l25.9 58.5c5.7 13.1 18.6 21.5 32.9 21.5 4.9 0 9.8-1 14.5-3.1 18.2-8 26.4-29.3 18.4-47.5l-25.8-58.5z m-62.6-661.2c4.3 1.7 8.7 2.4 13 2.4 14.9 0 28.2-9.1 33.6-23l23.1-59.7c7.2-18.5-2-39.4-20.5-46.6h-0.1c-18.5-7.2-39.4 2-46.6 20.5v0.1l-23.1 59.7c-7.2 18.6 2 39.4 20.6 46.6zM395.7 822.2c-18.5-7.2-39.4 2-46.6 20.5v0.1L326 902.5c-7.2 18.5 2 39.4 20.6 46.6 4.2 1.6 8.6 2.4 13 2.4 14.9 0 28.2-9.1 33.6-23l23.1-59.7c7.2-18.6-2-39.4-20.6-46.6z m476.8-443.8c4.9 0 9.8-1 14.5-3.1l58.5-25.9c18.2-8 26.4-29.3 18.4-47.5s-29.3-26.4-47.5-18.4l-58.5 25.9c-18.2 8.1-26.4 29.3-18.4 47.5 5.8 13.1 18.7 21.5 33 21.5zM155.5 620L97 645.9c-18.2 8-26.4 29.3-18.4 47.5 5.7 13.1 18.6 21.5 32.9 21.5 4.9 0 9.8-1 14.5-3.1l58.5-25.9c18.2-8 26.4-29.3 18.4-47.5S173.7 612 155.5 620z" fill="#1890FF" p-id="13043" data-darkreader-inline-fill="" style="--darkreader-inline-fill:#0062be;"></path><path d="M952.1 625.7l-59.7-23.1c-18.5-7.2-39.4 2-46.6 20.5v0.1c-7.2 18.5 2 39.4 20.5 46.6h0.1l59.7 23.1c4.3 1.7 8.7 2.4 13 2.4 14.9 0 28.2-9.1 33.6-23 7.2-18.6-2.1-39.4-20.6-46.6zM90.5 369.6l59.7 23.1c4.3 1.7 8.7 2.4 13 2.4 19.9 0 36-16 36.1-35.9 0-14.9-9.1-28.3-23.1-33.7l-59.7-23.1c-18.5-7.2-39.4 2-46.6 20.5v0.1c-7.2 18.6 2 39.4 20.6 46.6z" fill="#1890FF" p-id="13044" data-darkreader-inline-fill="" style="--darkreader-inline-fill:#0062be;"></path></svg>